<?xml version="1.0" encoding="UTF-8"?>
<svg id="a" data-name="Слой 2" xmlns="http://www.w3.org/2000/svg" xmlns:xlink="http://www.w3.org/1999/xlink" viewBox="0 0 1494.73 1619.6">
  <defs>
    <style>
      .c {
        fill: #ffb471;
      }

      .d {
        fill: #2172b5;
      }

      .e {
        fill: #ff5b00;
      }

      .f {
        fill: url(#b);
      }

      .g {
        fill: #ed1c24;
      }

      .h {
        fill: #eff3f9;
      }
    </style>
    <radialGradient id="b" data-name="Безымянный градиент 233" cx="749.37" cy="658.93" fx="189.34" fy="366.08" r="631.98" gradientTransform="translate(267.37 -351.11) rotate(11.27) scale(.93 1.46) skewX(-2.22)" gradientUnits="userSpaceOnUse">
      <stop offset=".34" stop-color="#ebf3ed"/>
      <stop offset=".4" stop-color="#e6f1ec"/>
      <stop offset=".47" stop-color="#d9ebeb"/>
      <stop offset=".54" stop-color="#c3e2e8"/>
      <stop offset=".62" stop-color="#a5d5e5"/>
      <stop offset=".69" stop-color="#7ec4e1"/>
      <stop offset=".77" stop-color="#4fb1dc"/>
      <stop offset=".84" stop-color="#1e9cd7"/>
      <stop offset="1" stop-color="#0075be"/>
    </radialGradient>
  </defs>
  <path class="g" d="M1494.62,1109.35c-1.42,58.51-12.88,122.95-54.73,190.01-122.2,195.83-338.03,304.58-566.6,319.14-225.19,14.36-347.27-116.78-350.81-120.66,2.67,1.73,65.13,41.86,166.34,53.79,48.13,5.7,105.01,5.03,168.37-9.17,102.12-22.89,122.33-27.94,196.38-86.62,35.32-27.97,63.42-55.1,90.14-92.21,14.84-20.57,26.98-43.17,36.18-66.39,14.29-35.82,21.76-73.13,21.76-106.86,0-70.75-9.11-123.37-64.39-184.43-35.41-39.12-112.68-50.3-141.71-149.41-29.04-99.11,54.79-160.76,132.06-211.06,45.81-29.82,87.11-61.61,117.15-98.28,20.64-25.18,35.96-52.65,43.81-83.35,2.48-9.7,3.22-19.81,2.64-30.04-3.8-69.33-66.93-143.85-44.49-129.24,25.75,16.77,106.24,103.39,135.21,192.81,28.97,89.42-25.75,187.22-51.51,262.67-14.42,42.25,26.37,140.64,53.79,212.62,1.45,3.72,2.8,7.35,4.15,10.93,10.78,28.75,9.66,97.8,9.66,97.8,0,0,20.41-21.66,25.75-33.53,2.48-5.5,4.7-11.12,6.7-16.77,21.21-60.33,15.84-125.74,15.84-125.74,0,0,51.03,91.07,48.29,203.99Z"/>
  <path class="e" d="M1406.53,669.12s24.26,26.18,39.51,60.66c9.17,20.73,13.94,45.14,13.94,66.73,0,36.4-13.94,58.64-48.8,66.73-34.86,8.09-55.77-30.33-51.13-56.62,4.65-26.29,39.51-30.33,46.48-56.62,6.61-24.92,4.65-68.75,0-80.89Z"/>
  <path class="c" d="M1087.6,260.92s41,30.49,75.91,75.13c20.99,26.84,38.82,60.02,49.76,90.52,18.45,51.41,6.78,79.19-22.73,96.28-22.14,12.82-72.71-13.99-86.37-55.31-12.44-37.65-2.2-71.66-3.16-92.81-1.67-36.76-1.95-97.92-13.41-113.81Z"/>
  <path class="f" d="M1137.28,1198.77c-37.6,99.99-148.55,188.62-310.13,208.41-1.86.23-3.69.42-5.55.62-40.3,4.32-79.48,4.35-116.99.65-1.02-.08-2.04-.17-3.03-.28-95.71-10.26-306.05-73.69-342.28-201.02-54.07-190.01,33.17-438.45,72.09-514.16,45.76-89.18,88.96-175.89,140.9-257.31,105.47-165.4,254.17-372.54,267.61-401.92-.63,8.58,162.2,230.9,192.24,309.05,86.32,224.57-56.26,310.1-99.8,389.28-43.54,79.18-20.61,154.98,9,206.08,36.01,62.11,110.12,71.51,156.02,132.68,7.17,9.57,12.27,21.03,18,33.88,13.89,31.17,21.03,61.49,21.9,94.04Z"/>
  <ellipse class="h" cx="641.39" cy="1024.12" rx="66.22" ry="62.87"/>
  <path class="d" d="M797.86,1513.98c-239.25,31.67-390.4-168.53-438.55-307.36,0,0,160.43,167.14,342.7,185.72.99.11,2.01.2,3.03.28,37.94,3.83,77.23,3.77,117.12-.64,1.86-.2,3.69-.39,5.56-.61,161.75-19.58,271.93-94.19,309.57-193.12,3.99,148.54-124.66,287.33-339.43,315.74Z"/>
  <path class="e" d="M1433.74,1085.74c-1.32,55.27-12.07,116.1-51.32,179.42-114.54,184.9-316.84,287.59-531.12,301.34-62.87,4.02-117.15-4.11-162.48-17.66,48.13,5.7,105.01,5.03,168.37-9.17,102.12-22.89,122.33-27.94,196.38-86.62,35.32-27.97,63.42-55.1,90.14-92.21,14.84-20.57,26.98-43.17,36.18-66.39,2.09-5.23,4.02-10.48,5.79-15.73,9.3-27.33,14.62-55.08,15.71-81.06.1-1.23.13-2.43.16-3.63.06-2.15.1-4.3.1-6.43,0-70.75-9.11-123.37-64.39-184.43-35.41-39.12-112.68-50.3-141.71-149.41-4.28-14.59-6.08-28.33-5.86-41.36.64-36.24,17.19-66.87,41.5-93.64,26.46-29.12,62.1-53.71,96.42-76.06,45.81-29.82,87.11-61.61,117.15-98.28,17.26-21.04,30.81-43.7,39.34-68.52.13-.39.29-.81.42-1.2.64-1.87,1.26-3.77,1.84-5.67.8-2.63,1.55-5.28,2.22-7.96,2.48-9.7,3.22-19.81,2.64-30.04,15.03,24.06,28.33,50.35,36.89,76.93,27.17,84.42-24.14,176.77-48.29,248-14.2,41.94,28.81,142.54,54.34,211.08,10.11,27.13,9.05,92.32,9.05,92.32,0,0,19.12-20.45,24.14-31.66,8.43-18.86,13.68-39.01,16.87-57.81,1.45,3.72,2.8,7.35,4.15,10.93,10.78,28.75,9.66,97.8,9.66,97.8,0,0,20.41-21.66,25.75-33.53,2.48-5.5,4.7-11.12,6.7-16.77,2.45,18.11,3.73,37.42,3.25,57.42Z"/>
  <path class="c" d="M1224.2,896.98c48.9,92.05,49.96,110.93,48.29,184.43-2.61,115.94-83.54,222.09-86.79,197.31,9.3-27.33,14.62-55.08,15.71-81.06.1-1.23.13-2.43.16-3.63.06-2.15.1-4.3.1-6.43,0-70.75-9.11-123.37-64.39-184.43-35.41-39.12-112.68-50.3-141.71-149.41-4.28-14.59-6.08-28.33-5.86-41.36.64-36.24,17.19-66.87,41.5-93.64,26.46-29.12,62.1-53.71,96.42-76.06,45.81-29.82,87.11-61.61,117.15-98.28,17.26-21.04,30.81-43.7,39.34-68.52.13-.39.29-.81.42-1.2.03.22.1.45.16.67,18.12,71.4-74.33,143.32-100.06,202.23-24.43,96.4,9.75,163.27,39.57,219.38Z"/>
</svg>